<?xml version="1.0" encoding="utf-8"?>
<!-- Generator: Adobe Illustrator 17.1.0, SVG Export Plug-In . SVG Version: 6.00 Build 0)  -->
<!DOCTYPE svg PUBLIC "-//W3C//DTD SVG 1.1//EN" "http://www.w3.org/Graphics/SVG/1.1/DTD/svg11.dtd">
<svg version="1.1" xmlns="http://www.w3.org/2000/svg" xmlns:xlink="http://www.w3.org/1999/xlink" x="0px" y="0px"
	 viewBox="0 0 152 136" enable-background="new 0 0 152 136" xml:space="preserve">
<g id="bg" display="none">
	<rect x="0" y="-0.5" display="inline" fill="#484848" width="152" height="136"/>
</g>
<g id="plast" display="none">
	<path display="inline" fill="#FFFFFF" d="M103.9,68c-2.4-7.8-0.1-19.9,0-22.2c0.1-2.2-1.3-15.4-5.8-15.9c-4.3-0.5-5.1-8-12.2-3.9
		c-7.1,4.2-1.4,26-6.5,24.8c-5.2-1.2-7.8,2.2-10.1,1.6c-2.3-0.6-3.4-19.6-5.5-21.3c-2.1-1.7,0.8-2.6-5.9-3.8
		c-6.6-1.2-8.3,0.2-8.1,1.3c0.3,1.1-0.7,7.2-2.7,10.8s-0.9,10.1-2,11c-2.5,2.4-1.8,7.4-1.2,9.4c2.2,6.6-1,13.9,2.4,18.8
		c3.4,4.8-0.7,6.4,1.7,11.5c1.3,2.7,3.5,14.2,4.1,16.8c1,4.2,8.4,3.1,8.4,3.1s3.2-1.1,13.6-1.1c9,0,24.9,1.9,28.5-2.2
		C106.3,102.7,106.4,76.1,103.9,68z M57.5,48.6c-3.7-2-4.4-3.6-4.4-3.6s-0.9-1.2,0.4-3.3c2.1-3.4,3.6-13.1,4.4-2.3
		S64.3,52.4,57.5,48.6z M96.8,38.8c-4.2,7-2,9-5.2,11.5c-3.2,2.5-3-7.6-3-7.6s0,0.4,0,0C88.6,37.7,101.6,30.8,96.8,38.8z"/>
</g>
<g id="papp">
	<g>
		<path fill="#FFFFFF" d="M89.7,43.6V26.7l-6.7-6.7H66.3l-6.7,6.7v16.9H37.9l-2,72.8h77.4l-2-72.8H89.7z M82.9,43.6H66.3V26.7h16.6
			V43.6z"/>
	</g>
</g>
<g id="sopsäck" display="none">
	<path display="inline" fill="#FFFFFF" d="M60,129.1c0,0-18.4,8.2-25.8-16.2c0,0-13.9-23,2.4-42.9s30.5-30.5,32.7-35.4
		c0,0-2.3-5.2,1.8-8.2c4.1-3-18.7-19.3-11.8-22s6.9,1.4,11.6,0.2C75.6,3.5,80,2.1,80,2.1s3.7-2,7.3,2.3c3.6,4.3,10.9,1.4,7.6,4.9
		c-3.4,3.4-15.7,14.4-13.6,16.6c2.9,3,3.4,5.6,1,8.6c-3.5,4.5,48.3,35.9,36.5,66.3c0,0,1.8,11.2-7.5,14.2
		C111.3,115.1,103,147.1,60,129.1z"/>
</g>
</svg>
